#!OML:ASF F:\VICON\USERDATA\INSTALL\SteveWalk\SteveWalk.ASF
:FULLY-SPECIFIED
:DEGREES
362
root 0.0845824 15.7429 34.4577 18.9468 7.63606 0.310049
lowerback -16.8112 -2.77387 2.15332
upperback -5.66094 -4.08917 2.23125
thorax 3.37863 -2.01735 0.345041
lowerneck -4.68677 0.26632 0.0762171
upperneck 6.50471 0.588647 -3.32668
head 2.90779 0.177821 -1.06518
rclavicle 1.72259e-014 -1.11319e-014
rhumerus -90.9195 -39.0856 0.78108
rradius 11.5356
rwrist 51.9818
rhand -13.8199 -28.0941
rfingers 7.12502
rthumb 12.3028 -57.7122
lclavicle 1.72259e-014 -1.11319e-014
lhumerus -18.6347 -4.96678 81.9157
lradius 64.0238
lwrist 8.6868
lhand -21.7444 -21.143
lfingers 7.12502
lthumb 4.65562 8.78586
rfemur -51.176 -1.53358 22.1892
rtibia 33.1634
rfoot -5.54053 3.85703
rtoes -14.3682
lfemur -5.56233 -0.630336 -19.4124
ltibia 40.2254
lfoot 8.38932 -14.1799
ltoes -2.20455
363
root 0.0664147 15.7303 34.6789 19.0677 6.3887 0.56765
lowerback -16.6688 -2.46911 1.48999
upperback -5.68996 -3.58172 2.28024
thorax 3.3198 -1.76471 0.872572
lowerneck -4.76472 0.382709 0.0627902
upperneck 6.23288 0.752475 -3.52779
head 2.83555 0.254421 -1.12002
rclavicle -4.24343e-014 7.95139e-015
rhumerus -90.5295 -39.5646 0.538678
rradius 11.6445
rwrist 51.8467
rhand -13.648 -30.0909
rfingers 7.12502
rthumb 12.4685 -59.6989
lclavicle -4.24343e-014 7.95139e-015
lhumerus -19.6325 -4.56932 82.3024
lradius 64.3152
lwrist 8.54547
lhand -21.7828 -21.179
lfingers 7.12502
lthumb 4.61846 8.75064
rfemur -51.417 -0.241164 21.6848
rtibia 34.6196
rfoot -5.95695 4.59368
rtoes -11.0913
lfemur -7.24931 0.054367 -19.9852
ltibia 43.4551
lfoot 12.1822 -13.7549
ltoes -1.59078
364
root 0.0846821 15.7422 34.8775 18.5711 6.12012 -0.0906622
lowerback -15.618 -2.1787 2.48651
upperback -5.71276 -3.3255 2.43975
thorax 2.68805 -1.65026 0.57183
lowerneck -4.73059 0.455929 -0.0372344
upperneck 5.91046 0.84788 -3.53333
head 2.72148 0.303597 -1.09803
rclavicle 6.86428e-015 -8.74653e-015
rhumerus -88.4889 -39.7769 -2.37289
rradius 11.8128
rwrist 49.3888
rhand -13.4798 -31.4192
rfingers 7.12502
rthumb 12.6307 -61.0173
lclavicle 6.86428e-015 -8.74653e-015
lhumerus -20.755 -4.17505 82.6429
lradius 64.5711
lwrist 8.39141
lhand -21.8777 -20.944
lfingers 7.12502
lthumb 4.52683 8.9876
rfemur -50.7835 -0.237524 22.7162
rtibia 35.7584
rfoot -6.4986 5.73179
rtoes -7.07682
lfemur -8.3643 0.203746 -19.3909
ltibia 46.5766
lfoot 15.0788 -13.8851
ltoes -2.60764
365
root 0.1108 15.7738 35.1277 18.3282 6.52452 -0.61832
lowerback -15.6157 -2.13312 3.47237
upperback -5.68328 -3.41548 2.56746
thorax 2.66487 -1.701 0.137634
lowerneck -4.48097 0.431234 0.080218
upperneck 5.50758 0.803273 -3.73122
head 2.5419 0.28518 -1.18061
rclavicle 1.03617e-014 3.97569e-015
rhumerus -85.8917 -39.7924 -6.20204
rradius 11.8531
rwrist 47.0491
rhand -13.2212 -32.3578
rfingers 7.12502
rthumb 12.8799 -61.9404
lclavicle 1.03617e-014 3.97569e-015
lhumerus -21.9191 -3.93043 82.924
lradius 64.6423
lwrist 8.43709
lhand -21.9454 -20.4695
lfingers 7.12502
lthumb 4.46146 9.46349
rfemur -49.9874 -1.27888 23.964
rtibia 36.655
rfoot -7.30116 6.53449
rtoes -4.61486
lfemur -9.55593 -0.120525 -18.7432
ltibia 49.5311
lfoot 17.9042 -14.0046
ltoes -3.78307
366
root 0.124327 15.803 35.3805 17.9731 6.67044 -1.32114
lowerback -15.695 -2.00195 4.32875
upperback -5.52846 -3.38779 2.74591
thorax 2.82912 -1.68677 -0.156591
lowerneck -4.2682 0.342977 0.267967
upperneck 5.18043 0.67045 -3.91573
head 2.39398 0.223713 -1.27439
rclavicle 1.81888e-014 -3.97569e-015
rhumerus -89.0306 -41.0943 -1.00897
rradius 11.5873
rwrist 51.5403
rhand -12.915 -32.639
rfingers 7.12502
rthumb 13.1751 -62.2027
lclavicle 1.81888e-014 -3.97569e-015
lhumerus -22.8187 -3.76336 83.2347
lradius 64.3661
lwrist 8.81274
lhand -22.0532 -20.4053
lfingers 7.12502
lthumb 4.35736 9.52988
rfemur -48.9491 -1.85608 25.2278
rtibia 37.2927
rfoot -8.19632 7.06681
rtoes -3.11598
lfemur -10.6991 -0.107809 -17.9643
ltibia 52.4428
lfoot 20.7636 -13.5639
ltoes -5.36769
367
root 0.125373 15.8184 35.6025 17.8516 6.56938 -1.72108
lowerback -15.4763 -1.82781 4.74565
upperback -5.5697 -3.20723 2.83784
thorax 2.65494 -1.60331 -0.252269
lowerneck -4.13608 0.285246 0.196616
upperneck 5.08619 0.583908 -3.75165
head 2.33423 0.186503 -1.21043
rclavicle 3.26877e-014 -1.51076e-014
rhumerus -85.2388 -40.9948 -7.2015
rradius 12.343
rwrist 46.8082
rhand -13.6302 -30.8496
rfingers 7.12502
rthumb 12.4857 -60.4566
lclavicle 3.26877e-014 -1.51076e-014
lhumerus -23.7257 -3.74466 83.6723
lradius 63.817
lwrist 9.47278
lhand -22.3212 -20.6303
lfingers 7.12502
lthumb 4.09865 9.30997
rfemur -48.2202 -1.873 25.8756
rtibia 37.711
rfoot -8.86169 7.43529
rtoes -0.593336
lfemur -12.2762 0.0123592 -17.5704
ltibia 55.3247
lfoot 23.2934 -11.9994
ltoes -7.62549
368
root 0.12546 15.835 35.7995 17.6118 6.17942 -1.44874
lowerback -15.0715 -1.73145 4.30941
upperback -5.43696 -2.99797 2.80622
thorax 2.60959 -1.49691 0.00479473
lowerneck -4.31116 0.271853 0.230717
upperneck 5.05512 0.563103 -3.72847
head 2.35567 0.176158 -1.21006
rclavicle 1.1368e-015 -4.77083e-015
rhumerus -85.3783 -42.1765 -6.48602
rradius 12.0288
rwrist 47.6351
rhand -15.032 -26.8324
rfingers 7.12502
rthumb 11.1339 -56.517
lclavicle 1.1368e-015 -4.77083e-015
lhumerus -24.2804 -3.54621 84.1887
lradius 63.0118
lwrist 9.9421
lhand -22.6872 -20.9042
lfingers 7.12502
lthumb 3.74514 9.0426
rfemur -47.4305 -1.67096 25.6051
rtibia 38.112
rfoot -9.51032 7.62777
rtoes 1.39247
lfemur -13.7842 0.299011 -17.997
ltibia 58.2073
lfoot 24.9413 -10.2583
ltoes -10.9658
369
root 0.140898 15.8754 36.0214 17.3726 6.79943 -2.09874
lowerback -15.0045 -1.66874 5.21772
upperback -5.4127 -3.04545 2.97231
thorax 2.55509 -1.52543 -0.333998
lowerneck -4.79716 0.131081 0.414264
upperneck 5.58868 0.390759 -3.85284
head 2.62197 0.0792745 -1.29585
rclavicle 4.49657e-014 1.03368e-014
rhumerus -85.0032 -42.9761 -6.85853
rradius 12.0063
rwrist 47.6356
rhand -14.4884 -25.743
rfingers 7.12502
rthumb 11.6581 -55.3987
lclavicle 4.49657e-014 1.03368e-014
lhumerus -25.0973 -3.24163 84.7292
lradius 62.1851
lwrist 9.8843
lhand -22.9386 -21.0015
lfingers 7.12502
lthumb 3.50242 8.94947
rfemur -46.3725 -2.42615 26.6564
rtibia 38.3447
rfoot -10.6528 7.93195
rtoes 1.4763
lfemur -15.2657 0.314035 -17.1539
ltibia 60.9378
lfoot 24.956 -10.294
ltoes -15.1102
370
root 0.102517 15.8706 36.2311 17.3797 6.20191 -1.81871
lowerback -15.0028 -1.53009 4.19522
upperback -5.3485 -2.72437 3.02864
thorax 2.69082 -1.35591 0.347137
lowerneck -4.79599 0.113501 0.287881
upperneck 5.54174 0.367445 -3.73324
head 2.60363 0.0693642 -1.23515
rclavicle 6.02566e-016 6.36111e-015
rhumerus -82.6857 -43.6098 -10.0754
rradius 12.243
rwrist 45.716
rhand -14.3727 -30.3981
rfingers 7.12502
rthumb 11.7697 -60.0474
lclavicle 6.02566e-016 6.36111e-015
lhumerus -25.6121 -2.86773 85.3132
lradius 61.0012
lwrist 9.64976
lhand -23.0781 -20.8533
lfingers 7.12502
lthumb 3.36766 9.09985
rfemur -45.6794 -1.12814 26.0852
rtibia 38.6082
rfoot -11.4009 6.8671
rtoes -0.257458
lfemur -17.0473 1.1955 -17.3978
ltibia 63.5921
lfoot 23.7946 -10.5357
ltoes -16.6143
371
root 0.0825819 15.8989 36.4342 17.4591 5.87664 -1.4896
lowerback -14.8736 -1.45293 3.42089
upperback -5.42376 -2.50222 3.02388
thorax 2.58311 -1.24298 0.817925
lowerneck -4.8176 0.0733956 0.223127
upperneck 5.72516 0.319937 -3.66069
head 2.66717 0.0443473 -1.20381
rclavicle -5.41378e-015 8.74653e-015
rhumerus -82.8169 -44.5467 -9.62814
rradius 12.2249
rwrist 46.5117
rhand -16.5029 -35.5997
rfingers 7.12502
rthumb 9.71499 -65.3556
lclavicle -5.41378e-015 8.74653e-015
lhumerus -26.0414 -2.58088 85.8629
lradius 59.3068
lwrist 9.56286
lhand -23.2333 -21.0414
lfingers 7.12502
lthumb 3.2178 8.9141
rfemur -44.9225 -0.43651 25.5879
rtibia 38.6448
rfoot -12.0686 6.22058
rtoes -1.34772
lfemur -18.9853 1.68876 -17.7666
ltibia 65.9295
lfoot 22.5624 -9.86769
ltoes -15.6
372
root 0.0807414 15.923 36.6433 17.5463 6.00957 -1.68673
lowerback -14.9745 -1.37212 3.49631
upperback -5.50514 -2.41021 3.11114
thorax 2.55238 -1.19753 0.881147
lowerneck -4.72371 0.00973096 0.256134
upperneck 5.91442 0.240363 -3.70507
head 2.712 0.00281097 -1.22831
rclavicle -4.95098e-015 1.59028e-015
rhumerus -83.1017 -45.588 -8.95453
rradius 12.0424
rwrist 47.7392
rhand -16.9138 -34.5879
rfingers 7.12502
rthumb 9.31854 -64.362
lclavicle -4.95098e-015 1.59028e-015
lhumerus -26.5252 -2.2678 86.3427
lradius 57.5354
lwrist 9.36989
lhand -23.3339 -21.2336
lfingers 7.12502
lthumb 3.12063 8.72335
rfemur -44.1191 -0.378918 25.8587
rtibia 38.6644
rfoot -12.9494 5.91485
rtoes -2.49002
lfemur -21.011 1.85255 -17.5389
ltibia 68.1189
lfoot 21.2917 -8.81614
ltoes -12.6287
373
root 0.124682 15.9614 36.8543 17.6341 6.95786 -2.18858
lowerback -15.4826 -1.36668 4.65661
upperback -5.42037 -2.60585 3.17384
thorax 2.85776 -1.29446 0.248577
lowerneck -4.59601 -0.0875507 0.21742
upperneck 5.86886 0.113769 -3.75776
head 2.67009 -0.0609499 -1.24208
rclavicle -2.01891e-015 1.35174e-014
rhumerus -82.258 -46.7806 -9.78367
rradius 11.9022
rwrist 48.2246
rhand -17.387 -34.1458
rfingers 7.12502
rthumb 8.86189 -63.9397
lclavicle -2.01891e-015 1.35174e-014
lhumerus -26.7298 -1.73495 86.7485
lradius 55.6698
lwrist 8.85475
lhand -23.2398 -21.3481
lfingers 7.12502
lthumb 3.21147 8.60744
rfemur -43.2651 -1.93158 26.8317
rtibia 38.6628
rfoot -14.0545 6.65553
rtoes -2.76216
lfemur -22.9476 1.14491 -17.0329
ltibia 70.0281
lfoot 19.7629 -7.40517
ltoes -7.52281
374
root 0.0963101 15.9836 37.0624 17.6553 6.36064 -2.19925
lowerback -15.6713 -1.20834 4.00372
upperback -5.37042 -2.32042 3.26811
thorax 3.05171 -1.14538 0.757394
lowerneck -4.35871 -0.189615 0.209208
upperneck 5.85872 -0.0235362 -3.779
head 2.61936 -0.127658 -1.25073
rclavicle -1.60953e-014 7.95139e-015
rhumerus -80.0707 -47.4826 -12.5806
rradius 12.0746
rwrist 47.3555
rhand -17.6288 -33.8397
rfingers 7.12502
rthumb 8.62853 -63.6434
lclavicle -1.60953e-014 7.95139e-015
lhumerus -27.0425 -1.09059 87.0789
lradius 53.5594
lwrist 8.11689
lhand -23.1566 -21.6286
lfingers 7.12502
lthumb 3.29185 8.32578
rfemur -42.3801 -0.694185 26.5957
rtibia 38.4329
rfoot -14.4412 5.95686
rtoes -3.69267
lfemur -24.6983 1.9097 -17.0525
ltibia 71.6736
lfoot 17.9936 -6.78604
ltoes -4.61992
375
root 0.047615 15.9736 37.2592 17.9265 5.07964 -1.44423
lowerback -15.7694 -1.0015 2.23913
upperback -5.53908 -1.77769 3.15582
thorax 2.98773 -0.870015 1.72972
lowerneck -4.51381 -0.231832 0.131892
upperneck 6.55943 -0.0617183 -3.61854
head 2.88262 -0.152751 -1.19497
rclavicle 1.07965e-014 3.97569e-015
rhumerus -77.5934 -47.8287 -15.7899
rradius 12.2477
rwrist 46.1011
rhand -17.8725 -33.6497
rfingers 7.12502
rthumb 8.39336 -63.4629
lclavicle 1.07965e-014 3.97569e-015
lhumerus -27.7307 -0.491783 87.3163
lradius 51.5684
lwrist 6.95367
lhand -22.8191 -21.1639
lfingers 7.12502
lthumb 3.61776 8.78512
rfemur -41.8946 1.07849 25.4303
rtibia 38.3401
rfoot -14.767 4.84653
rtoes -5.92965
lfemur -26.7683 3.03103 -18.0742
ltibia 73.1425
lfoot 16.398 -5.93839
ltoes -2.82092
